{"title":"Diamond.Dogs.2007.DVDRiP.XviD.MULTISUB-Zen_Bud","uid":5958637,"size":741408313,"categoryP":"video","categoryS":"movies","magnet":"?xt=urn:btih:659489ad93ca135877c9b0bd38f955010ee445da&amp;dn=Diamond.Dogs.2007.DVDRiP.XviD.MULTISUB-Zen_Bud&amp;tr=udp%3A%2F%2Ftracker.openbittorrent.com%3A80&amp;tr=udp%3A%2F%2Fopen.demonii.com%3A1337&amp;tr=udp%3A%2F%2Ftracker.coppersurfer.tk%3A6969&amp;tr=udp%3A%2F%2Fexodus.desync.com%3A6969","seeders":1,"leechers":0,"uploader":"Zen_Bud","files":-1,"time":1289838473,"description":"********* Diamond.Dogs.2007.DVDRiP.XviD.MULTISUB-Zen_Bud *********\n\nFormat                           : AVI\nFormat profile                   : OpenDML\nFile size                        : 700 MiB\nDuration                         : 1h 30mn\nOverall bit rate                 : 1 081 Kbps\nWriting application              : AVI-Mux GUI 1.17.8.3\n\nVideo\n\nFormat                           : MPEG-4 Visual\nCodec ID/Hint                    : XviD\nDuration                         : 1h 30mn\nBit rate                         : 949 Kbps\nWidth                            : 720 pixels\nHeight                           : 554 pixels\nDisplay aspect ratio             : 16:9\nStream size                      : 615 MiB (88%)\nWriting library                  : XviD 1.1.2 (UTC 2006-11-01)\n\nAudio\n\nFormat                           : MPEG Audio\nCodec ID                         : 55\nCodec ID/Hint                    : MP3\nDuration                         : 1h 30mn\nBit rate                         : 128 Kbps\nChannel(s)                       : 2 channels\nSampling rate                    : 48.0 KHz\nStream size                      : 82.9 MiB (12%)\nWriting library                  : LAME3.98\nLanguage                         : English\n\nText #1\nLanguage                         : Swedish\n\nText #2\nLanguage                         : Finnish\n\nText #3\nLanguage                         : Norwegian\n\nText #4\nLanguage                         : Danish\n\n\nA mercenary is hired to protect an expedition group while they search for a Tangka, a Buddhist artifact worth millions of dollars.","torrent":{"xt":"urn:btih:659489ad93ca135877c9b0bd38f955010ee445da","amp;dn":"Diamond.Dogs.2007.DVDRiP.XviD.MULTISUB-Zen_Bud","amp;tr":["udp%3A%2F%2Ftracker.openbittorrent.com%3A80","udp%3A%2F%2Fopen.demonii.com%3A1337","udp%3A%2F%2Ftracker.coppersurfer.tk%3A6969","udp%3A%2F%2Fexodus.desync.com%3A6969"],"infoHash":"659489ad93ca135877c9b0bd38f955010ee445da","infoHashBuffer":{"type":"Buffer","data":[101,148,137,173,147,202,19,88,119,201,176,189,56,249,85,1,14,228,69,218]},"announce":[],"urlList":[]}}